<svg viewBox="0 0 64 64" xmlns="http://www.w3.org/2000/svg" fill-rule="evenodd" clip-rule="evenodd" stroke-linejoin="round" stroke-miterlimit="2"><path fill="none" d="M0 0h64v64H0z"/><path d="M32.0003 5.5798c1.4826 0 7.473 18.9475 7.473 18.9475s18.9474 5.9904 18.9474 7.473c0 1.4826-18.9475 7.4729-18.9475 7.4729s-5.9903 18.9475-7.4729 18.9475c-1.4826 0-7.4729-18.9475-7.4729-18.9475S5.58 33.4829 5.58 32.0002c0-1.4825 18.9475-7.4729 18.9475-7.4729s5.9903-18.9475 7.473-18.9475z" fill="#00EB6E"/><path d="M20.5704 20.5704c1.573-4.7008 5.0362-14.7426 6.7037-17.2383C28.8756.9359 30.9587.5803 32.0003.5803c1.0416 0 3.1247.3556 4.7262 2.7518 1.6676 2.4957 5.1307 12.5375 6.7037 17.2383 4.7008 1.573 14.7426 5.0361 17.2383 6.7037 2.3961 1.6014 2.7518 3.6846 2.7518 4.7262 0 1.0415-.3557 3.1247-2.7518 4.7262C58.1728 38.394 48.131 41.857 43.4302 43.43c-1.573 4.7008-5.0361 14.7426-6.7037 17.2383-1.6015 2.3962-3.6846 2.7518-4.7262 2.7518-1.0416 0-3.1247-.3556-4.7262-2.7518-1.6675-2.4957-5.1306-12.5375-6.7037-17.2383-4.7008-1.573-14.7426-5.0361-17.2383-6.7036C.936 35.125.5803 33.0418.5803 32.0003c0-1.0416.3557-3.1248 2.7518-4.7262 2.4957-1.6676 12.5375-5.1307 17.2383-6.7037zm11.43-14.9906c1.4825 0 7.4728 18.9475 7.4728 18.9475s18.9475 5.9904 18.9475 7.473c0 1.4826-18.9475 7.4729-18.9475 7.4729s-5.9903 18.9475-7.4729 18.9475c-1.4826 0-7.4729-18.9475-7.4729-18.9475S5.58 33.4829 5.58 32.0002c0-1.4825 18.9475-7.4729 18.9475-7.4729s5.9903-18.9475 7.473-18.9475z" fill="#fff"/></svg>
